<svg width="615" height="307" viewBox="0 0 615 307" fill="none" xmlns="http://www.w3.org/2000/svg">
<path d="M88.7639 250.801L177.291 33.3718L296.815 33.3716L209.52 250.801L88.7639 250.801Z" stroke="#2F9B2E" stroke-width="3"/>
<path d="M222.764 250.801L311.291 33.3718L430.815 33.3716L343.52 250.801L222.764 250.801Z" stroke="#FF6B00" stroke-width="3"/>
<path d="M358.764 250.801L447.291 33.3718L566.815 33.3716L479.52 250.801L358.764 250.801Z" stroke="#2F9B2E" stroke-width="3"/>
<path d="M6.4925 178L18.5664 105.273H69.2766L66.8618 119.548H33.7297L31.3149 134.463H61.8547L59.4399 148.774H28.9002L26.4854 163.724H59.6175L57.2027 178H6.4925ZM122.011 140.109L106.35 140.536C106.374 139.375 106.114 138.357 105.569 137.482C105.025 136.582 104.255 135.884 103.261 135.386C102.267 134.889 101.083 134.641 99.7098 134.641C97.4844 134.641 95.484 135.138 93.7084 136.132C91.9565 137.126 90.974 138.417 90.761 140.003C90.5952 140.855 90.832 141.601 91.4712 142.24C92.1104 142.856 93.5309 143.4 95.7326 143.874L105.96 145.862C111.216 146.904 115.027 148.715 117.394 151.295C119.786 153.852 120.638 157.238 119.951 161.452C119.336 165.05 117.75 168.163 115.193 170.791C112.66 173.419 109.428 175.455 105.498 176.899C101.592 178.32 97.2714 179.03 92.5365 179.03C84.5346 179.03 78.4977 177.42 74.4257 174.2C70.3774 170.957 68.4835 166.66 68.7439 161.31L85.6473 160.884C85.7184 162.896 86.3931 164.411 87.6715 165.429C88.9736 166.423 90.7373 166.944 92.9627 166.991C95.4011 167.039 97.5081 166.53 99.2837 165.464C101.059 164.399 102.054 163.085 102.267 161.523C102.409 160.505 102.065 159.712 101.237 159.143C100.432 158.575 98.9286 158.066 96.7269 157.616L87.4939 155.805C82.1909 154.787 78.3557 152.87 75.9882 150.053C73.6445 147.212 72.8396 143.589 73.5735 139.186C74.189 135.682 75.6331 132.711 77.9059 130.273C80.2023 127.811 83.197 125.94 86.8902 124.662C90.6071 123.384 94.8448 122.744 99.6033 122.744C107.226 122.744 112.979 124.295 116.862 127.396C120.768 130.474 122.484 134.712 122.011 140.109ZM165.61 123.455L163.444 136.239H129.033L131.2 123.455H165.61ZM140.539 110.386H157.904L149.523 160.848C149.358 161.913 149.381 162.777 149.594 163.44C149.831 164.08 150.257 164.541 150.873 164.825C151.512 165.086 152.293 165.216 153.217 165.216C153.856 165.216 154.566 165.145 155.347 165.003C156.129 164.861 156.72 164.754 157.123 164.683L157.691 177.219C156.768 177.479 155.525 177.775 153.962 178.107C152.423 178.462 150.624 178.687 148.565 178.781C144.398 178.947 140.953 178.462 138.231 177.325C135.532 176.165 133.626 174.366 132.513 171.928C131.424 169.489 131.211 166.435 131.874 162.766L140.539 110.386ZM180.614 178.923C177.157 178.923 174.174 178.343 171.665 177.183C169.179 176 167.356 174.212 166.196 171.821C165.06 169.43 164.787 166.447 165.379 162.872C165.9 159.842 166.859 157.297 168.256 155.237C169.676 153.154 171.416 151.461 173.476 150.159C175.559 148.857 177.879 147.863 180.436 147.176C182.993 146.49 185.668 146.028 188.462 145.791C191.587 145.507 194.12 145.199 196.061 144.868C198.026 144.536 199.494 144.075 200.464 143.483C201.435 142.867 202.027 142.015 202.24 140.926V140.749C202.524 138.926 202.133 137.517 201.068 136.523C200.003 135.528 198.405 135.031 196.274 135.031C194.001 135.031 192.06 135.528 190.45 136.523C188.84 137.517 187.716 138.89 187.077 140.642L171.168 140.074C172.162 136.759 173.866 133.8 176.281 131.196C178.696 128.568 181.762 126.509 185.479 125.017C189.219 123.502 193.54 122.744 198.44 122.744C201.897 122.744 205.022 123.159 207.815 123.987C210.609 124.792 212.964 125.976 214.882 127.538C216.823 129.077 218.208 130.971 219.037 133.22C219.865 135.469 220.043 138.038 219.57 140.926L213.355 178H197.02L198.298 170.401H197.872C196.594 172.247 195.09 173.81 193.362 175.088C191.658 176.366 189.74 177.325 187.609 177.964C185.479 178.604 183.147 178.923 180.614 178.923ZM187.929 167.56C189.752 167.56 191.48 167.181 193.114 166.423C194.747 165.666 196.12 164.624 197.233 163.298C198.369 161.949 199.091 160.386 199.399 158.611L200.216 153.426C199.719 153.687 199.091 153.923 198.334 154.136C197.576 154.349 196.771 154.551 195.919 154.74C195.067 154.906 194.191 155.071 193.291 155.237C192.415 155.379 191.575 155.509 190.77 155.628C189.065 155.888 187.586 156.291 186.331 156.835C185.076 157.38 184.07 158.09 183.312 158.966C182.579 159.818 182.129 160.836 181.963 162.02C181.679 163.795 182.093 165.169 183.206 166.139C184.319 167.086 185.893 167.56 187.929 167.56ZM249.293 179.03C243.54 179.03 238.793 177.846 235.053 175.479C231.336 173.111 228.731 169.821 227.24 165.607C225.749 161.369 225.476 156.468 226.423 150.905C227.323 145.318 229.229 140.417 232.141 136.203C235.053 131.965 238.769 128.663 243.291 126.295C247.813 123.928 252.927 122.744 258.632 122.744C263.675 122.744 267.912 123.656 271.345 125.479C274.802 127.302 277.299 129.882 278.838 133.22C280.401 136.535 280.862 140.429 280.223 144.903H263.994C264.136 142.134 263.568 139.955 262.29 138.369C261.011 136.759 259.153 135.955 256.714 135.955C254.655 135.955 252.761 136.523 251.033 137.659C249.328 138.772 247.872 140.429 246.665 142.631C245.481 144.809 244.629 147.508 244.108 150.727C243.587 153.947 243.552 156.67 244.001 158.895C244.475 161.097 245.363 162.766 246.665 163.902C247.99 165.015 249.671 165.571 251.707 165.571C253.317 165.571 254.809 165.228 256.182 164.541C257.555 163.855 258.75 162.848 259.768 161.523C260.786 160.173 261.58 158.54 262.148 156.622H278.341C277.418 161.144 275.63 165.086 272.979 168.447C270.351 171.786 267.025 174.39 263 176.26C258.975 178.107 254.406 179.03 249.293 179.03ZM283.641 178L292.732 123.455H310.097L301.006 178H283.641ZM302.64 117.062C300.177 117.062 298.177 116.246 296.638 114.612C295.099 112.979 294.496 111.026 294.827 108.753C295.158 106.456 296.318 104.503 298.307 102.893C300.296 101.284 302.509 100.479 304.948 100.479C307.41 100.479 309.387 101.284 310.878 102.893C312.393 104.503 312.985 106.456 312.654 108.753C312.37 111.026 311.233 112.979 309.245 114.612C307.28 116.246 305.078 117.062 302.64 117.062ZM337.485 179.03C331.732 179.03 326.986 177.846 323.245 175.479C319.528 173.111 316.912 169.809 315.397 165.571C313.882 161.333 313.586 156.409 314.509 150.798C315.432 145.211 317.338 140.311 320.227 136.097C323.115 131.883 326.808 128.604 331.306 126.26C335.804 123.916 340.906 122.744 346.611 122.744C352.341 122.744 357.064 123.928 360.78 126.295C364.521 128.663 367.149 131.965 368.664 136.203C370.203 140.441 370.511 145.377 369.587 151.011C368.664 156.598 366.746 161.499 363.834 165.713C360.923 169.903 357.229 173.17 352.755 175.514C348.28 177.858 343.191 179.03 337.485 179.03ZM339.438 165.926C341.569 165.926 343.475 165.287 345.155 164.009C346.86 162.73 348.292 160.943 349.452 158.646C350.612 156.35 351.441 153.687 351.938 150.656C352.435 147.673 352.483 145.057 352.08 142.808C351.701 140.536 350.897 138.772 349.665 137.517C348.434 136.239 346.765 135.599 344.658 135.599C342.528 135.599 340.61 136.25 338.905 137.553C337.201 138.831 335.769 140.618 334.609 142.915C333.472 145.187 332.655 147.851 332.158 150.905C331.661 153.888 331.602 156.504 331.981 158.753C332.36 161.002 333.176 162.766 334.431 164.044C335.686 165.299 337.355 165.926 339.438 165.926ZM396.629 146.892L391.445 178H374.08L383.17 123.455H399.683L398.05 133.469H398.653C400.358 130.131 402.832 127.515 406.075 125.621C409.319 123.703 412.964 122.744 417.013 122.744C420.824 122.744 424.008 123.597 426.565 125.301C429.122 127.006 430.933 129.397 431.999 132.474C433.064 135.528 433.241 139.115 432.531 143.234L426.707 178H409.342L414.562 146.643C415.083 143.637 414.716 141.281 413.462 139.577C412.231 137.848 410.218 136.984 407.425 136.984C405.602 136.984 403.933 137.387 402.418 138.192C400.926 138.973 399.671 140.098 398.653 141.565C397.659 143.033 396.984 144.809 396.629 146.892ZM462.707 179.03C457.001 179.03 452.267 177.905 448.502 175.656C444.762 173.384 442.134 170.152 440.619 165.962C439.104 161.748 438.832 156.741 439.802 150.94C440.749 145.306 442.679 140.382 445.591 136.168C448.526 131.93 452.219 128.639 456.67 126.295C461.121 123.928 466.081 122.744 471.549 122.744C475.432 122.744 478.876 123.348 481.883 124.555C484.89 125.763 487.376 127.562 489.341 129.953C491.305 132.321 492.643 135.232 493.353 138.689C494.064 142.145 494.04 146.111 493.282 150.585L492.608 154.918H445.235L446.833 144.832H478.083C478.367 142.986 478.214 141.34 477.622 139.896C477.03 138.452 476.071 137.328 474.745 136.523C473.443 135.694 471.845 135.28 469.951 135.28C468.034 135.28 466.234 135.73 464.554 136.629C462.896 137.505 461.488 138.689 460.328 140.18C459.168 141.672 458.41 143.353 458.055 145.223L456.173 155.557C455.794 157.853 455.901 159.818 456.492 161.452C457.084 163.085 458.102 164.34 459.546 165.216C460.991 166.068 462.849 166.494 465.122 166.494C466.637 166.494 468.057 166.293 469.383 165.891C470.709 165.464 471.893 164.837 472.934 164.009C474 163.156 474.864 162.126 475.527 160.919L491.365 161.381C490.086 164.955 488.109 168.069 485.434 170.72C482.759 173.348 479.492 175.396 475.633 176.864C471.798 178.308 467.489 179.03 462.707 179.03Z" fill="#2F9B2E"/>
<path d="M606.017 198.805L5.16465 203.234" stroke="url(#paint0_linear_2_72)" stroke-width="5"/>
<mask id="path-6-outside-1_2_72" maskUnits="userSpaceOnUse" x="299.534" y="186" width="234" height="18" fill="black">
<rect fill="white" x="299.534" y="186" width="234" height="18"/>
<path d="M310.264 191.844C310.302 191.309 310.16 190.894 309.838 190.601C309.52 190.307 309.019 190.161 308.332 190.161C307.877 190.161 307.489 190.22 307.167 190.338C306.845 190.452 306.592 190.613 306.407 190.821C306.223 191.025 306.107 191.261 306.059 191.531C306.017 191.744 306.028 191.934 306.095 192.099C306.161 192.265 306.277 192.412 306.443 192.54C306.613 192.668 306.824 192.779 307.075 192.874C307.331 192.968 307.617 193.051 307.934 193.122L309.127 193.406C309.819 193.562 310.418 193.771 310.924 194.031C311.436 194.287 311.85 194.597 312.167 194.962C312.484 195.321 312.702 195.736 312.821 196.205C312.939 196.673 312.948 197.199 312.849 197.781C312.698 198.7 312.335 199.488 311.762 200.146C311.194 200.804 310.451 201.309 309.532 201.659C308.618 202.009 307.555 202.185 306.343 202.185C305.131 202.185 304.101 202.002 303.254 201.638C302.411 201.268 301.8 200.712 301.421 199.969C301.043 199.225 300.941 198.288 301.116 197.156H304.475C304.423 197.625 304.483 198.016 304.653 198.328C304.828 198.641 305.098 198.877 305.463 199.038C305.827 199.199 306.268 199.28 306.784 199.28C307.257 199.28 307.671 199.216 308.027 199.088C308.386 198.96 308.673 198.783 308.886 198.555C309.104 198.328 309.236 198.068 309.284 197.774C309.331 197.504 309.286 197.27 309.149 197.071C309.016 196.872 308.789 196.699 308.467 196.553C308.15 196.406 307.733 196.273 307.217 196.155L305.761 195.8C304.558 195.506 303.647 195.037 303.027 194.393C302.411 193.75 302.193 192.876 302.373 191.773C302.525 190.868 302.899 190.078 303.495 189.401C304.097 188.723 304.857 188.198 305.775 187.824C306.698 187.445 307.714 187.256 308.822 187.256C309.949 187.256 310.896 187.447 311.663 187.831C312.435 188.21 312.991 188.745 313.332 189.436C313.678 190.123 313.777 190.925 313.63 191.844H310.264ZM325.143 187.455H328.652L327.096 196.837C326.916 197.921 326.502 198.866 325.853 199.67C325.209 200.471 324.388 201.091 323.389 201.531C322.39 201.967 321.277 202.185 320.051 202.185C318.82 202.185 317.78 201.967 316.933 201.531C316.085 201.091 315.472 200.471 315.093 199.67C314.715 198.866 314.613 197.921 314.788 196.837L316.343 187.455H319.859L318.346 196.531C318.266 197.033 318.304 197.481 318.46 197.874C318.621 198.262 318.881 198.57 319.241 198.797C319.601 199.019 320.041 199.131 320.562 199.131C321.088 199.131 321.568 199.019 322.004 198.797C322.439 198.57 322.799 198.262 323.083 197.874C323.367 197.481 323.55 197.033 323.63 196.531L325.143 187.455ZM331.587 202H327.808L335.131 187.455H339.811L342.304 202H338.526L336.928 191.119H336.814L331.587 202ZM332.041 196.276H339.939L339.484 198.946H331.587L332.041 196.276ZM353.884 187.455L355.369 198.108H355.489L360.511 187.455H364.445L357.123 202H352.442L349.95 187.455H353.884ZM364.575 202H360.796L368.119 187.455H372.799L375.292 202H371.514L369.916 191.119H369.802L364.575 202ZM365.029 196.276H372.927L372.473 198.946H364.575L365.029 196.276ZM387.347 192.206C387.318 191.908 387.252 191.645 387.148 191.418C387.044 191.186 386.901 190.989 386.722 190.828C386.542 190.667 386.319 190.546 386.054 190.466C385.789 190.381 385.481 190.338 385.131 190.338C384.43 190.338 383.781 190.509 383.185 190.849C382.588 191.19 382.084 191.687 381.672 192.341C381.26 192.99 380.978 193.778 380.827 194.706C380.675 195.639 380.67 196.434 380.812 197.092C380.959 197.75 381.253 198.252 381.693 198.598C382.133 198.944 382.716 199.116 383.44 199.116C384.089 199.116 384.662 199.012 385.159 198.804C385.656 198.591 386.059 198.29 386.366 197.902C386.679 197.514 386.875 197.057 386.956 196.531L387.602 196.609H384.065L384.491 194.045H390.756L390.436 195.97C390.223 197.272 389.764 198.387 389.058 199.315C388.357 200.243 387.481 200.956 386.43 201.453C385.384 201.95 384.236 202.199 382.986 202.199C381.603 202.199 380.436 201.898 379.484 201.297C378.533 200.696 377.856 199.839 377.453 198.726C377.051 197.608 376.975 196.283 377.226 194.749C377.425 193.555 377.777 192.497 378.284 191.574C378.795 190.646 379.42 189.86 380.159 189.216C380.902 188.572 381.724 188.084 382.624 187.753C383.523 187.421 384.458 187.256 385.429 187.256C386.267 187.256 387.029 187.376 387.716 187.618C388.402 187.859 388.99 188.2 389.477 188.641C389.965 189.081 390.332 189.604 390.578 190.21C390.829 190.816 390.938 191.482 390.905 192.206H387.347ZM394.204 202H390.425L397.748 187.455H402.428L404.921 202H401.143L399.545 191.119H399.431L394.204 202ZM394.658 196.276H402.556L402.102 198.946H394.204L394.658 196.276ZM421.956 192.206C421.928 191.908 421.861 191.645 421.757 191.418C421.653 191.186 421.511 190.989 421.331 190.828C421.151 190.667 420.928 190.546 420.663 190.466C420.398 190.381 420.09 190.338 419.74 190.338C419.039 190.338 418.391 190.509 417.794 190.849C417.197 191.19 416.693 191.687 416.281 192.341C415.869 192.99 415.588 193.778 415.436 194.706C415.285 195.639 415.28 196.434 415.422 197.092C415.569 197.75 415.862 198.252 416.303 198.598C416.743 198.944 417.325 199.116 418.05 199.116C418.698 199.116 419.271 199.012 419.768 198.804C420.266 198.591 420.668 198.29 420.976 197.902C421.288 197.514 421.485 197.057 421.565 196.531L422.212 196.609H418.675L419.101 194.045H425.365L425.045 195.97C424.832 197.272 424.373 198.387 423.668 199.315C422.967 200.243 422.091 200.956 421.04 201.453C419.993 201.95 418.845 202.199 417.595 202.199C416.213 202.199 415.045 201.898 414.094 201.297C413.142 200.696 412.465 199.839 412.062 198.726C411.66 197.608 411.584 196.283 411.835 194.749C412.034 193.555 412.387 192.497 412.893 191.574C413.405 190.646 414.03 189.86 414.768 189.216C415.512 188.572 416.333 188.084 417.233 187.753C418.133 187.421 419.068 187.256 420.038 187.256C420.876 187.256 421.639 187.376 422.325 187.618C423.012 187.859 423.599 188.2 424.087 188.641C424.574 189.081 424.941 189.604 425.187 190.21C425.438 190.816 425.547 191.482 425.514 192.206H421.956ZM428.813 202H425.035L432.357 187.455H437.038L439.53 202H435.752L434.154 191.119H434.04L428.813 202ZM429.268 196.276H437.165L436.711 198.946H428.813L429.268 196.276ZM441.097 202L443.511 187.455H449.52C450.609 187.455 451.518 187.651 452.247 188.044C452.976 188.432 453.495 188.991 453.803 189.72C454.11 190.445 454.181 191.304 454.016 192.298C453.855 193.302 453.495 194.157 452.936 194.862C452.382 195.563 451.667 196.098 450.791 196.467C449.92 196.837 448.93 197.021 447.822 197.021H444.023L444.491 194.251H447.638C448.163 194.251 448.618 194.183 449.001 194.045C449.385 193.903 449.69 193.69 449.918 193.406C450.15 193.117 450.303 192.748 450.379 192.298C450.45 191.848 450.417 191.477 450.28 191.183C450.147 190.885 449.913 190.662 449.577 190.516C449.245 190.364 448.819 190.288 448.298 190.288H446.565L444.612 202H441.097ZM450.386 195.352L452.908 202H449.072L446.629 195.352H450.386ZM457.641 202H453.863L461.185 187.455H465.866L468.359 202H464.58L462.982 191.119H462.869L457.641 202ZM458.096 196.276H465.994L465.539 198.946H457.641L458.096 196.276ZM484.719 187.455L482.304 202H479.321L474.939 193.605H474.839L473.44 202H469.925L472.339 187.455H475.365L479.712 195.835H479.832L481.21 187.455H484.719ZM485.97 190.31L486.453 187.455H498.747L498.265 190.31H493.854L491.922 202H488.456L490.388 190.31H485.97ZM503.98 187.455L501.565 202H498.05L500.464 187.455H503.98ZM509.227 202H503.772L506.187 187.455H511.478C512.956 187.455 514.187 187.755 515.171 188.357C516.161 188.953 516.859 189.81 517.267 190.928C517.679 192.04 517.757 193.366 517.501 194.905C517.255 196.392 516.76 197.665 516.017 198.726C515.278 199.786 514.331 200.598 513.176 201.162C512.02 201.721 510.704 202 509.227 202ZM507.778 199.003H509.447C510.261 199.003 510.981 198.856 511.606 198.562C512.236 198.264 512.757 197.788 513.169 197.135C513.581 196.477 513.874 195.613 514.049 194.543C514.22 193.52 514.213 192.713 514.028 192.121C513.848 191.524 513.498 191.098 512.977 190.842C512.461 190.582 511.786 190.452 510.953 190.452H509.206L507.778 199.003ZM520.669 202H516.89L524.213 187.455H528.893L531.386 202H527.608L526.01 191.119H525.896L520.669 202ZM521.123 196.276H529.021L528.566 198.946H520.669L521.123 196.276Z"/>
</mask>
<path d="M310.264 191.844C310.302 191.309 310.16 190.894 309.838 190.601C309.52 190.307 309.019 190.161 308.332 190.161C307.877 190.161 307.489 190.22 307.167 190.338C306.845 190.452 306.592 190.613 306.407 190.821C306.223 191.025 306.107 191.261 306.059 191.531C306.017 191.744 306.028 191.934 306.095 192.099C306.161 192.265 306.277 192.412 306.443 192.54C306.613 192.668 306.824 192.779 307.075 192.874C307.331 192.968 307.617 193.051 307.934 193.122L309.127 193.406C309.819 193.562 310.418 193.771 310.924 194.031C311.436 194.287 311.85 194.597 312.167 194.962C312.484 195.321 312.702 195.736 312.821 196.205C312.939 196.673 312.948 197.199 312.849 197.781C312.698 198.7 312.335 199.488 311.762 200.146C311.194 200.804 310.451 201.309 309.532 201.659C308.618 202.009 307.555 202.185 306.343 202.185C305.131 202.185 304.101 202.002 303.254 201.638C302.411 201.268 301.8 200.712 301.421 199.969C301.043 199.225 300.941 198.288 301.116 197.156H304.475C304.423 197.625 304.483 198.016 304.653 198.328C304.828 198.641 305.098 198.877 305.463 199.038C305.827 199.199 306.268 199.28 306.784 199.28C307.257 199.28 307.671 199.216 308.027 199.088C308.386 198.96 308.673 198.783 308.886 198.555C309.104 198.328 309.236 198.068 309.284 197.774C309.331 197.504 309.286 197.27 309.149 197.071C309.016 196.872 308.789 196.699 308.467 196.553C308.15 196.406 307.733 196.273 307.217 196.155L305.761 195.8C304.558 195.506 303.647 195.037 303.027 194.393C302.411 193.75 302.193 192.876 302.373 191.773C302.525 190.868 302.899 190.078 303.495 189.401C304.097 188.723 304.857 188.198 305.775 187.824C306.698 187.445 307.714 187.256 308.822 187.256C309.949 187.256 310.896 187.447 311.663 187.831C312.435 188.21 312.991 188.745 313.332 189.436C313.678 190.123 313.777 190.925 313.63 191.844H310.264ZM325.143 187.455H328.652L327.096 196.837C326.916 197.921 326.502 198.866 325.853 199.67C325.209 200.471 324.388 201.091 323.389 201.531C322.39 201.967 321.277 202.185 320.051 202.185C318.82 202.185 317.78 201.967 316.933 201.531C316.085 201.091 315.472 200.471 315.093 199.67C314.715 198.866 314.613 197.921 314.788 196.837L316.343 187.455H319.859L318.346 196.531C318.266 197.033 318.304 197.481 318.46 197.874C318.621 198.262 318.881 198.57 319.241 198.797C319.601 199.019 320.041 199.131 320.562 199.131C321.088 199.131 321.568 199.019 322.004 198.797C322.439 198.57 322.799 198.262 323.083 197.874C323.367 197.481 323.55 197.033 323.63 196.531L325.143 187.455ZM331.587 202H327.808L335.131 187.455H339.811L342.304 202H338.526L336.928 191.119H336.814L331.587 202ZM332.041 196.276H339.939L339.484 198.946H331.587L332.041 196.276ZM353.884 187.455L355.369 198.108H355.489L360.511 187.455H364.445L357.123 202H352.442L349.95 187.455H353.884ZM364.575 202H360.796L368.119 187.455H372.799L375.292 202H371.514L369.916 191.119H369.802L364.575 202ZM365.029 196.276H372.927L372.473 198.946H364.575L365.029 196.276ZM387.347 192.206C387.318 191.908 387.252 191.645 387.148 191.418C387.044 191.186 386.901 190.989 386.722 190.828C386.542 190.667 386.319 190.546 386.054 190.466C385.789 190.381 385.481 190.338 385.131 190.338C384.43 190.338 383.781 190.509 383.185 190.849C382.588 191.19 382.084 191.687 381.672 192.341C381.26 192.99 380.978 193.778 380.827 194.706C380.675 195.639 380.67 196.434 380.812 197.092C380.959 197.75 381.253 198.252 381.693 198.598C382.133 198.944 382.716 199.116 383.44 199.116C384.089 199.116 384.662 199.012 385.159 198.804C385.656 198.591 386.059 198.29 386.366 197.902C386.679 197.514 386.875 197.057 386.956 196.531L387.602 196.609H384.065L384.491 194.045H390.756L390.436 195.97C390.223 197.272 389.764 198.387 389.058 199.315C388.357 200.243 387.481 200.956 386.43 201.453C385.384 201.95 384.236 202.199 382.986 202.199C381.603 202.199 380.436 201.898 379.484 201.297C378.533 200.696 377.856 199.839 377.453 198.726C377.051 197.608 376.975 196.283 377.226 194.749C377.425 193.555 377.777 192.497 378.284 191.574C378.795 190.646 379.42 189.86 380.159 189.216C380.902 188.572 381.724 188.084 382.624 187.753C383.523 187.421 384.458 187.256 385.429 187.256C386.267 187.256 387.029 187.376 387.716 187.618C388.402 187.859 388.99 188.2 389.477 188.641C389.965 189.081 390.332 189.604 390.578 190.21C390.829 190.816 390.938 191.482 390.905 192.206H387.347ZM394.204 202H390.425L397.748 187.455H402.428L404.921 202H401.143L399.545 191.119H399.431L394.204 202ZM394.658 196.276H402.556L402.102 198.946H394.204L394.658 196.276ZM421.956 192.206C421.928 191.908 421.861 191.645 421.757 191.418C421.653 191.186 421.511 190.989 421.331 190.828C421.151 190.667 420.928 190.546 420.663 190.466C420.398 190.381 420.09 190.338 419.74 190.338C419.039 190.338 418.391 190.509 417.794 190.849C417.197 191.19 416.693 191.687 416.281 192.341C415.869 192.99 415.588 193.778 415.436 194.706C415.285 195.639 415.28 196.434 415.422 197.092C415.569 197.75 415.862 198.252 416.303 198.598C416.743 198.944 417.325 199.116 418.05 199.116C418.698 199.116 419.271 199.012 419.768 198.804C420.266 198.591 420.668 198.29 420.976 197.902C421.288 197.514 421.485 197.057 421.565 196.531L422.212 196.609H418.675L419.101 194.045H425.365L425.045 195.97C424.832 197.272 424.373 198.387 423.668 199.315C422.967 200.243 422.091 200.956 421.04 201.453C419.993 201.95 418.845 202.199 417.595 202.199C416.213 202.199 415.045 201.898 414.094 201.297C413.142 200.696 412.465 199.839 412.062 198.726C411.66 197.608 411.584 196.283 411.835 194.749C412.034 193.555 412.387 192.497 412.893 191.574C413.405 190.646 414.03 189.86 414.768 189.216C415.512 188.572 416.333 188.084 417.233 187.753C418.133 187.421 419.068 187.256 420.038 187.256C420.876 187.256 421.639 187.376 422.325 187.618C423.012 187.859 423.599 188.2 424.087 188.641C424.574 189.081 424.941 189.604 425.187 190.21C425.438 190.816 425.547 191.482 425.514 192.206H421.956ZM428.813 202H425.035L432.357 187.455H437.038L439.53 202H435.752L434.154 191.119H434.04L428.813 202ZM429.268 196.276H437.165L436.711 198.946H428.813L429.268 196.276ZM441.097 202L443.511 187.455H449.52C450.609 187.455 451.518 187.651 452.247 188.044C452.976 188.432 453.495 188.991 453.803 189.72C454.11 190.445 454.181 191.304 454.016 192.298C453.855 193.302 453.495 194.157 452.936 194.862C452.382 195.563 451.667 196.098 450.791 196.467C449.92 196.837 448.93 197.021 447.822 197.021H444.023L444.491 194.251H447.638C448.163 194.251 448.618 194.183 449.001 194.045C449.385 193.903 449.69 193.69 449.918 193.406C450.15 193.117 450.303 192.748 450.379 192.298C450.45 191.848 450.417 191.477 450.28 191.183C450.147 190.885 449.913 190.662 449.577 190.516C449.245 190.364 448.819 190.288 448.298 190.288H446.565L444.612 202H441.097ZM450.386 195.352L452.908 202H449.072L446.629 195.352H450.386ZM457.641 202H453.863L461.185 187.455H465.866L468.359 202H464.58L462.982 191.119H462.869L457.641 202ZM458.096 196.276H465.994L465.539 198.946H457.641L458.096 196.276ZM484.719 187.455L482.304 202H479.321L474.939 193.605H474.839L473.44 202H469.925L472.339 187.455H475.365L479.712 195.835H479.832L481.21 187.455H484.719ZM485.97 190.31L486.453 187.455H498.747L498.265 190.31H493.854L491.922 202H488.456L490.388 190.31H485.97ZM503.98 187.455L501.565 202H498.05L500.464 187.455H503.98ZM509.227 202H503.772L506.187 187.455H511.478C512.956 187.455 514.187 187.755 515.171 188.357C516.161 188.953 516.859 189.81 517.267 190.928C517.679 192.04 517.757 193.366 517.501 194.905C517.255 196.392 516.76 197.665 516.017 198.726C515.278 199.786 514.331 200.598 513.176 201.162C512.02 201.721 510.704 202 509.227 202ZM507.778 199.003H509.447C510.261 199.003 510.981 198.856 511.606 198.562C512.236 198.264 512.757 197.788 513.169 197.135C513.581 196.477 513.874 195.613 514.049 194.543C514.22 193.52 514.213 192.713 514.028 192.121C513.848 191.524 513.498 191.098 512.977 190.842C512.461 190.582 511.786 190.452 510.953 190.452H509.206L507.778 199.003ZM520.669 202H516.89L524.213 187.455H528.893L531.386 202H527.608L526.01 191.119H525.896L520.669 202ZM521.123 196.276H529.021L528.566 198.946H520.669L521.123 196.276Z" fill="#222222"/>
<path d="M310.264 191.844L309.266 191.773L309.191 192.844H310.264V191.844ZM309.838 190.601L309.158 191.335L309.164 191.34L309.838 190.601ZM307.167 190.338L307.5 191.281L307.512 191.277L307.167 190.338ZM306.407 190.821L307.148 191.493L307.156 191.484L306.407 190.821ZM306.059 191.531L307.04 191.727L307.042 191.716L307.044 191.704L306.059 191.531ZM306.095 192.099L307.023 191.728L307.023 191.728L306.095 192.099ZM306.443 192.54L305.832 193.332L305.843 193.34L306.443 192.54ZM307.075 192.874L306.722 193.809L306.728 193.811L307.075 192.874ZM307.934 193.122L308.166 192.149L308.153 192.146L307.934 193.122ZM309.127 193.406L308.896 194.379L308.907 194.382L309.127 193.406ZM310.924 194.031L310.467 194.921L310.477 194.926L310.924 194.031ZM312.167 194.962L311.413 195.618L311.417 195.623L312.167 194.962ZM312.821 196.205L313.79 195.96L313.79 195.96L312.821 196.205ZM312.849 197.781L311.863 197.613L311.862 197.619L312.849 197.781ZM311.762 200.146L311.008 199.49L311.005 199.493L311.762 200.146ZM309.532 201.659L309.176 200.725L309.174 200.725L309.532 201.659ZM303.254 201.638L302.852 202.554L302.859 202.556L303.254 201.638ZM301.421 199.969L302.312 199.515L301.421 199.969ZM301.116 197.156V196.156H300.259L300.128 197.003L301.116 197.156ZM304.475 197.156L305.469 197.267L305.593 196.156H304.475V197.156ZM304.653 198.328L303.775 198.807L303.781 198.817L304.653 198.328ZM305.463 199.038L305.059 199.953L305.463 199.038ZM308.027 199.088L307.692 198.146L307.688 198.147L308.027 199.088ZM308.886 198.555L308.164 197.863L308.156 197.871L308.886 198.555ZM309.284 197.774L308.299 197.601L308.296 197.615L309.284 197.774ZM309.149 197.071L308.317 197.626L308.321 197.633L308.326 197.639L309.149 197.071ZM308.467 196.553L308.047 197.46L308.052 197.462L308.467 196.553ZM307.217 196.155L306.98 197.126L306.993 197.13L307.217 196.155ZM305.761 195.8L305.524 196.771L305.524 196.771L305.761 195.8ZM303.027 194.393L302.304 195.084L302.306 195.087L303.027 194.393ZM302.373 191.773L301.387 191.607L301.386 191.612L302.373 191.773ZM303.495 189.401L302.748 188.737L302.745 188.739L303.495 189.401ZM305.775 187.824L306.152 188.75L306.155 188.749L305.775 187.824ZM311.663 187.831L311.216 188.725L311.222 188.729L311.663 187.831ZM313.332 189.436L312.435 189.878L312.439 189.886L313.332 189.436ZM313.63 191.844V192.844H314.483L314.618 192.002L313.63 191.844ZM311.261 191.914C311.315 191.152 311.111 190.409 310.511 189.862L309.164 191.34C309.208 191.38 309.288 191.465 309.266 191.773L311.261 191.914ZM310.517 189.867C309.932 189.326 309.129 189.161 308.332 189.161V191.161C308.908 191.161 309.109 191.289 309.158 191.335L310.517 189.867ZM308.332 189.161C307.796 189.161 307.284 189.23 306.822 189.399L307.512 191.277C307.694 191.21 307.959 191.161 308.332 191.161V189.161ZM306.834 189.395C306.388 189.553 305.979 189.797 305.659 190.158L307.156 191.484C307.205 191.429 307.302 191.351 307.5 191.281L306.834 189.395ZM305.667 190.149C305.355 190.492 305.154 190.902 305.074 191.358L307.044 191.704C307.059 191.621 307.09 191.557 307.148 191.493L305.667 190.149ZM305.079 191.335C305.006 191.697 305.014 192.089 305.166 192.471L307.023 191.728C307.027 191.738 307.03 191.748 307.032 191.756C307.034 191.764 307.034 191.769 307.034 191.771C307.034 191.774 307.033 191.761 307.04 191.727L305.079 191.335ZM305.166 192.471C305.31 192.829 305.549 193.114 305.832 193.332L307.054 191.748C307.028 191.728 307.018 191.716 307.016 191.714C307.015 191.712 307.019 191.717 307.023 191.728L305.166 192.471ZM305.843 193.34C306.105 193.537 306.404 193.689 306.722 193.809L307.428 191.938C307.244 191.868 307.121 191.799 307.043 191.74L305.843 193.34ZM306.728 193.811C307.032 193.924 307.363 194.019 307.716 194.098L308.153 192.146C307.871 192.083 307.629 192.012 307.422 191.936L306.728 193.811ZM307.703 194.095L308.896 194.379L309.359 192.433L308.166 192.149L307.703 194.095ZM308.907 194.382C309.535 194.524 310.051 194.707 310.467 194.921L311.381 193.142C310.784 192.835 310.102 192.601 309.348 192.431L308.907 194.382ZM310.477 194.926C310.893 195.133 311.196 195.368 311.413 195.618L312.922 194.305C312.504 193.826 311.979 193.44 311.372 193.137L310.477 194.926ZM311.417 195.623C311.628 195.862 311.771 196.134 311.851 196.449L313.79 195.96C313.633 195.338 313.341 194.781 312.917 194.3L311.417 195.623ZM311.851 196.449C311.929 196.757 311.944 197.138 311.863 197.613L313.835 197.95C313.953 197.26 313.949 196.59 313.79 195.96L311.851 196.449ZM311.862 197.619C311.739 198.367 311.451 198.981 311.008 199.49L312.517 200.803C313.22 199.995 313.656 199.033 313.836 197.944L311.862 197.619ZM311.005 199.493C310.559 200.01 309.96 200.426 309.176 200.725L309.889 202.593C310.941 202.192 311.829 201.599 312.519 200.8L311.005 199.493ZM309.174 200.725C308.398 201.023 307.461 201.185 306.343 201.185V203.185C307.65 203.185 308.839 202.996 309.89 202.593L309.174 200.725ZM306.343 201.185C305.227 201.185 304.339 201.016 303.649 200.719L302.859 202.556C303.864 202.989 305.036 203.185 306.343 203.185V201.185ZM303.655 200.722C303.001 200.435 302.575 200.031 302.312 199.515L300.53 200.423C301.025 201.394 301.821 202.102 302.853 202.554L303.655 200.722ZM302.312 199.515C302.059 199.017 301.95 198.309 302.104 197.309L300.128 197.003C299.932 198.267 300.027 199.434 300.53 200.423L302.312 199.515ZM301.116 198.156H304.475V196.156H301.116V198.156ZM303.482 197.046C303.414 197.653 303.479 198.264 303.775 198.807L305.531 197.849C305.486 197.767 305.433 197.597 305.469 197.267L303.482 197.046ZM303.781 198.817C304.074 199.34 304.519 199.715 305.059 199.953L305.867 198.124C305.677 198.04 305.583 197.942 305.525 197.839L303.781 198.817ZM305.059 199.953C305.582 200.184 306.168 200.28 306.784 200.28V198.28C306.367 198.28 306.072 198.214 305.867 198.124L305.059 199.953ZM306.784 200.28C307.344 200.28 307.878 200.204 308.365 200.029L307.688 198.147C307.465 198.227 307.17 198.28 306.784 198.28V200.28ZM308.361 200.03C308.838 199.861 309.271 199.606 309.616 199.239L308.156 197.871C308.074 197.959 307.935 198.059 307.692 198.146L308.361 200.03ZM309.608 199.247C309.957 198.883 310.189 198.439 310.271 197.933L308.296 197.615C308.283 197.696 308.25 197.774 308.164 197.863L309.608 199.247ZM310.269 197.947C310.355 197.456 310.279 196.947 309.972 196.503L308.326 197.639C308.322 197.634 308.317 197.626 308.313 197.615C308.308 197.604 308.305 197.593 308.303 197.584C308.3 197.566 308.304 197.569 308.299 197.601L310.269 197.947ZM309.981 196.516C309.707 196.105 309.297 195.832 308.882 195.643L308.052 197.462C308.281 197.567 308.326 197.639 308.317 197.626L309.981 196.516ZM308.887 195.645C308.483 195.458 307.993 195.307 307.44 195.18L306.993 197.13C307.473 197.239 307.816 197.353 308.047 197.46L308.887 195.645ZM307.454 195.183L305.998 194.828L305.524 196.771L306.98 197.126L307.454 195.183ZM305.998 194.828C304.911 194.563 304.194 194.164 303.747 193.7L302.306 195.087C303.099 195.911 304.205 196.449 305.524 196.771L305.998 194.828ZM303.749 193.702C303.405 193.342 303.216 192.815 303.36 191.934L301.386 191.612C301.17 192.937 301.417 194.157 302.304 195.084L303.749 193.702ZM303.359 191.938C303.481 191.215 303.775 190.596 304.246 190.062L302.745 188.739C302.023 189.559 301.569 190.522 301.387 191.607L303.359 191.938ZM304.243 190.065C304.733 189.513 305.362 189.072 306.152 188.75L305.398 186.898C304.351 187.324 303.46 187.934 302.748 188.737L304.243 190.065ZM306.155 188.749C306.945 188.425 307.83 188.256 308.822 188.256V186.256C307.598 186.256 306.452 186.465 305.396 186.899L306.155 188.749ZM308.822 188.256C309.841 188.256 310.624 188.43 311.216 188.725L312.11 186.937C311.168 186.465 310.057 186.256 308.822 186.256V188.256ZM311.222 188.729C311.82 189.022 312.203 189.408 312.435 189.878L314.229 188.994C313.779 188.082 313.049 187.397 312.104 186.933L311.222 188.729ZM312.439 189.886C312.672 190.348 312.764 190.93 312.643 191.686L314.618 192.002C314.791 190.92 314.684 189.897 314.225 188.986L312.439 189.886ZM313.63 190.844H310.264V192.844H313.63V190.844ZM325.143 187.455V186.455H324.296L324.157 187.29L325.143 187.455ZM328.652 187.455L329.638 187.618L329.831 186.455H328.652V187.455ZM327.096 196.837L328.083 197L328.083 197L327.096 196.837ZM325.853 199.67L325.075 199.043L325.074 199.044L325.853 199.67ZM323.389 201.531L323.788 202.448L323.792 202.446L323.389 201.531ZM316.933 201.531L316.472 202.419L316.476 202.421L316.933 201.531ZM315.093 199.67L314.189 200.096L314.19 200.098L315.093 199.67ZM314.788 196.837L313.801 196.673L313.801 196.677L314.788 196.837ZM316.343 187.455V186.455H315.495L315.357 187.291L316.343 187.455ZM319.859 187.455L320.845 187.619L321.039 186.455H319.859V187.455ZM318.346 196.531L317.36 196.367L317.359 196.373L318.346 196.531ZM318.46 197.874L317.531 198.243L317.533 198.25L317.536 198.257L318.46 197.874ZM319.241 198.797L318.707 199.642L318.715 199.647L319.241 198.797ZM322.004 198.797L322.459 199.687L322.466 199.683L322.004 198.797ZM323.083 197.874L323.89 198.464L323.894 198.459L323.083 197.874ZM323.63 196.531L322.644 196.367L322.643 196.373L323.63 196.531ZM325.143 188.455H328.652V186.455H325.143V188.455ZM327.665 187.291L326.11 196.673L328.083 197L329.638 187.618L327.665 187.291ZM326.11 196.673C325.956 197.598 325.608 198.381 325.075 199.043L326.632 200.298C327.396 199.35 327.876 198.243 328.083 197L326.11 196.673ZM325.074 199.044C324.537 199.711 323.848 200.236 322.985 200.616L323.792 202.446C324.928 201.946 325.882 201.23 326.632 200.297L325.074 199.044ZM322.989 200.615C322.131 200.989 321.157 201.185 320.051 201.185V203.185C321.397 203.185 322.648 202.945 323.788 202.448L322.989 200.615ZM320.051 201.185C318.934 201.185 318.061 200.987 317.39 200.642L316.476 202.421C317.5 202.947 318.706 203.185 320.051 203.185V201.185ZM317.394 200.644C316.724 200.296 316.275 199.829 315.997 199.243L314.19 200.098C314.669 201.112 315.447 201.886 316.472 202.419L317.394 200.644ZM315.998 199.245C315.723 198.661 315.624 197.929 315.775 196.996L313.801 196.677C313.601 197.913 313.706 199.07 314.189 200.096L315.998 199.245ZM315.774 197L317.33 187.618L315.357 187.291L313.801 196.673L315.774 197ZM316.343 188.455H319.859V186.455H316.343V188.455ZM318.873 187.29L317.36 196.367L319.333 196.696L320.845 187.619L318.873 187.29ZM317.359 196.373C317.256 197.017 317.295 197.652 317.531 198.243L319.389 197.504C319.312 197.31 319.276 197.05 319.334 196.69L317.359 196.373ZM317.536 198.257C317.777 198.838 318.175 199.306 318.707 199.642L319.775 197.951C319.587 197.833 319.464 197.686 319.384 197.491L317.536 198.257ZM318.715 199.647C319.266 199.988 319.898 200.131 320.562 200.131V198.131C320.184 198.131 319.936 198.051 319.767 197.946L318.715 199.647ZM320.562 200.131C321.234 200.131 321.872 199.987 322.459 199.687L321.549 197.906C321.265 198.052 320.942 198.131 320.562 198.131V200.131ZM322.466 199.683C323.035 199.387 323.514 198.979 323.89 198.464L322.276 197.283C322.085 197.545 321.844 197.752 321.541 197.91L322.466 199.683ZM323.894 198.459C324.274 197.934 324.514 197.338 324.618 196.69L322.643 196.373C322.586 196.728 322.461 197.028 322.273 197.288L323.894 198.459ZM324.617 196.696L326.129 187.619L324.157 187.29L322.644 196.367L324.617 196.696ZM331.587 202V203H332.216L332.488 202.433L331.587 202ZM327.808 202L326.915 201.55L326.185 203H327.808V202ZM335.131 187.455V186.455H334.514L334.237 187.005L335.131 187.455ZM339.811 187.455L340.797 187.286L340.654 186.455H339.811V187.455ZM342.304 202V203H343.49L343.29 201.831L342.304 202ZM338.526 202L337.536 202.145L337.662 203H338.526V202ZM336.928 191.119L337.917 190.974L337.791 190.119H336.928V191.119ZM336.814 191.119V190.119H336.185L335.912 190.686L336.814 191.119ZM332.041 196.276V195.276H331.197L331.055 196.108L332.041 196.276ZM339.939 196.276L340.925 196.443L341.123 195.276H339.939V196.276ZM339.484 198.946V199.946H340.329L340.47 199.114L339.484 198.946ZM331.587 198.946L330.601 198.778L330.402 199.946H331.587V198.946ZM331.587 201H327.808V203H331.587V201ZM328.701 202.45L336.024 187.904L334.237 187.005L326.915 201.55L328.701 202.45ZM335.131 188.455H339.811V186.455H335.131V188.455ZM338.825 187.623L341.318 202.169L343.29 201.831L340.797 187.286L338.825 187.623ZM342.304 201H338.526V203H342.304V201ZM339.515 201.855L337.917 190.974L335.938 191.265L337.536 202.145L339.515 201.855ZM336.928 190.119H336.814V192.119H336.928V190.119ZM335.912 190.686L330.685 201.567L332.488 202.433L337.715 191.552L335.912 190.686ZM332.041 197.276H339.939V195.276H332.041V197.276ZM338.953 196.108L338.499 198.778L340.47 199.114L340.925 196.443L338.953 196.108ZM339.484 197.946H331.587V199.946H339.484V197.946ZM332.572 199.114L333.027 196.443L331.055 196.108L330.601 198.778L332.572 199.114ZM353.884 187.455L354.875 187.317L354.755 186.455H353.884V187.455ZM355.369 198.108L354.378 198.246L354.498 199.108H355.369V198.108ZM355.489 198.108V199.108H356.123L356.394 198.534L355.489 198.108ZM360.511 187.455V186.455H359.876L359.606 187.028L360.511 187.455ZM364.445 187.455L365.338 187.904L366.068 186.455H364.445V187.455ZM357.123 202V203H357.739L358.016 202.45L357.123 202ZM352.442 202L351.457 202.169L351.599 203H352.442V202ZM349.95 187.455V186.455H348.764L348.964 187.623L349.95 187.455ZM352.894 187.593L354.378 198.246L356.359 197.97L354.875 187.317L352.894 187.593ZM355.369 199.108H355.489V197.108H355.369V199.108ZM356.394 198.534L361.415 187.881L359.606 187.028L354.585 197.682L356.394 198.534ZM360.511 188.455H364.445V186.455H360.511V188.455ZM363.552 187.005L356.23 201.55L358.016 202.45L365.338 187.904L363.552 187.005ZM357.123 201H352.442V203H357.123V201ZM353.428 201.831L350.935 187.286L348.964 187.623L351.457 202.169L353.428 201.831ZM349.95 188.455H353.884V186.455H349.95V188.455ZM364.575 202V203H365.204L365.476 202.433L364.575 202ZM360.796 202L359.903 201.55L359.173 203H360.796V202ZM368.119 187.455V186.455H367.503L367.226 187.005L368.119 187.455ZM372.799 187.455L373.785 187.286L373.643 186.455H372.799V187.455ZM375.292 202V203H376.478L376.278 201.831L375.292 202ZM371.514 202L370.524 202.145L370.65 203H371.514V202ZM369.916 191.119L370.905 190.974L370.78 190.119H369.916V191.119ZM369.802 191.119V190.119H369.173L368.901 190.686L369.802 191.119ZM365.029 196.276V195.276H364.185L364.044 196.108L365.029 196.276ZM372.927 196.276L373.913 196.443L374.112 195.276H372.927V196.276ZM372.473 198.946V199.946H373.317L373.458 199.114L372.473 198.946ZM364.575 198.946L363.589 198.778L363.39 199.946H364.575V198.946ZM364.575 201H360.796V203H364.575V201ZM361.69 202.45L369.012 187.904L367.226 187.005L359.903 201.55L361.69 202.45ZM368.119 188.455H372.799V186.455H368.119V188.455ZM371.814 187.623L374.307 202.169L376.278 201.831L373.785 187.286L371.814 187.623ZM375.292 201H371.514V203H375.292V201ZM372.503 201.855L370.905 190.974L368.926 191.265L370.524 202.145L372.503 201.855ZM369.916 190.119H369.802V192.119H369.916V190.119ZM368.901 190.686L363.674 201.567L365.476 202.433L370.704 191.552L368.901 190.686ZM365.029 197.276H372.927V195.276H365.029V197.276ZM371.941 196.108L371.487 198.778L373.458 199.114L373.913 196.443L371.941 196.108ZM372.473 197.946H364.575V199.946H372.473V197.946ZM365.561 199.114L366.015 196.443L364.044 196.108L363.589 198.778L365.561 199.114ZM387.347 192.206L386.351 192.301L386.437 193.206H387.347V192.206ZM387.148 191.418L386.235 191.827L386.239 191.834L387.148 191.418ZM386.054 190.466L385.748 191.418L385.756 191.42L385.763 191.423L386.054 190.466ZM383.185 190.849L383.681 191.718L383.185 190.849ZM381.672 192.341L382.516 192.877L382.518 192.874L381.672 192.341ZM380.827 194.706L379.84 194.545L379.84 194.546L380.827 194.706ZM380.812 197.092L379.835 197.303L379.836 197.31L380.812 197.092ZM385.159 198.804L385.546 199.726L385.553 199.723L385.159 198.804ZM386.366 197.902L385.587 197.275L385.583 197.281L386.366 197.902ZM386.956 196.531L387.076 195.538L386.114 195.422L385.967 196.38L386.956 196.531ZM387.602 196.609V197.609L387.722 195.617L387.602 196.609ZM384.065 196.609L383.079 196.445L382.885 197.609H384.065V196.609ZM384.491 194.045V193.045H383.644L383.505 193.881L384.491 194.045ZM390.756 194.045L391.742 194.209L391.935 193.045H390.756V194.045ZM390.436 195.97L389.45 195.806L389.449 195.809L390.436 195.97ZM389.058 199.315L388.262 198.71L388.26 198.713L389.058 199.315ZM386.43 201.453L386.003 200.549L386.001 200.55L386.43 201.453ZM379.484 201.297L378.95 202.142L379.484 201.297ZM377.453 198.726L376.512 199.065L376.513 199.066L377.453 198.726ZM377.226 194.749L376.239 194.584L376.239 194.587L377.226 194.749ZM378.284 191.574L377.408 191.091L377.407 191.093L378.284 191.574ZM380.159 189.216L379.504 188.46L379.502 188.462L380.159 189.216ZM382.624 187.753L382.278 186.814V186.814L382.624 187.753ZM390.578 190.21L389.652 190.587L389.654 190.593L390.578 190.21ZM390.905 192.206V193.206H391.86L391.904 192.252L390.905 192.206ZM388.342 192.111C388.305 191.723 388.216 191.348 388.057 191.001L386.239 191.834C386.288 191.942 386.331 192.092 386.351 192.301L388.342 192.111ZM388.06 191.008C387.902 190.655 387.678 190.342 387.388 190.083L386.055 191.573C386.125 191.636 386.186 191.716 386.235 191.827L388.06 191.008ZM387.388 190.083C387.085 189.811 386.728 189.626 386.344 189.509L385.763 191.423C385.91 191.467 385.998 191.523 386.055 191.573L387.388 190.083ZM386.36 189.514C385.974 189.39 385.559 189.338 385.131 189.338V191.338C385.403 191.338 385.603 191.371 385.748 191.418L386.36 189.514ZM385.131 189.338C384.259 189.338 383.439 189.552 382.688 189.981L383.681 191.718C384.123 191.465 384.6 191.338 385.131 191.338V189.338ZM382.688 189.981C381.933 190.413 381.314 191.033 380.826 191.808L382.518 192.874C382.853 192.342 383.243 191.968 383.681 191.718L382.688 189.981ZM380.828 191.805C380.329 192.59 380.008 193.513 379.84 194.545L381.814 194.867C381.948 194.043 382.191 193.389 382.516 192.877L380.828 191.805ZM379.84 194.546C379.676 195.556 379.658 196.485 379.835 197.303L381.79 196.881C381.683 196.384 381.675 195.722 381.814 194.866L379.84 194.546ZM379.836 197.31C380.023 198.146 380.419 198.869 381.076 199.385L382.311 197.811C382.087 197.636 381.896 197.355 381.788 196.875L379.836 197.31ZM381.076 199.385C381.738 199.905 382.558 200.116 383.44 200.116V198.116C382.873 198.116 382.529 197.983 382.311 197.811L381.076 199.385ZM383.44 200.116C384.195 200.116 384.904 199.995 385.546 199.726L384.773 197.882C384.42 198.029 383.983 198.116 383.44 198.116V200.116ZM385.553 199.723C386.188 199.451 386.73 199.053 387.15 198.523L385.583 197.281C385.387 197.527 385.124 197.731 384.765 197.885L385.553 199.723ZM387.145 198.529C387.576 197.994 387.839 197.37 387.944 196.683L385.967 196.38C385.912 196.743 385.782 197.033 385.587 197.275L387.145 198.529ZM386.836 197.524L387.482 197.602L387.722 195.617L387.076 195.538L386.836 197.524ZM387.602 195.609H384.065V197.609H387.602V195.609ZM385.052 196.773L385.478 194.209L383.505 193.881L383.079 196.445L385.052 196.773ZM384.491 195.045H390.756V193.045H384.491V195.045ZM389.769 193.882L389.45 195.806L391.423 196.134L391.742 194.209L389.769 193.882ZM389.449 195.809C389.259 196.971 388.856 197.929 388.262 198.71L389.854 199.921C390.671 198.846 391.187 197.574 391.423 196.132L389.449 195.809ZM388.26 198.713C387.657 199.512 386.908 200.121 386.003 200.549L386.858 202.357C388.055 201.791 389.058 200.975 389.856 199.918L388.26 198.713ZM386.001 200.55C385.099 200.978 384.099 201.199 382.986 201.199V203.199C384.372 203.199 385.669 202.922 386.859 202.356L386.001 200.55ZM382.986 201.199C381.749 201.199 380.777 200.931 380.018 200.451L378.95 202.142C380.095 202.865 381.457 203.199 382.986 203.199V201.199ZM380.018 200.451C379.265 199.975 378.725 199.301 378.393 198.386L376.513 199.066C376.987 200.376 377.801 201.416 378.95 202.142L380.018 200.451ZM378.394 198.387C378.064 197.472 377.981 196.326 378.213 194.91L376.239 194.587C375.969 196.239 376.037 197.745 376.512 199.065L378.394 198.387ZM378.212 194.913C378.395 193.815 378.716 192.866 379.161 192.055L377.407 191.093C376.839 192.128 376.454 193.296 376.239 194.584L378.212 194.913ZM379.16 192.056C379.619 191.223 380.173 190.531 380.816 189.97L379.502 188.462C378.668 189.189 377.971 190.069 377.408 191.091L379.16 192.056ZM380.814 189.972C381.468 189.405 382.186 188.98 382.969 188.691L382.278 186.814C381.262 187.189 380.336 187.739 379.504 188.46L380.814 189.972ZM382.969 188.691C383.757 188.401 384.575 188.256 385.429 188.256V186.256C384.342 186.256 383.29 186.442 382.278 186.814L382.969 188.691ZM385.429 188.256C386.171 188.256 386.819 188.362 387.384 188.561L388.048 186.675C387.24 186.39 386.363 186.256 385.429 186.256V188.256ZM387.384 188.561C387.959 188.764 388.428 189.04 388.807 189.383L390.147 187.898C389.551 187.36 388.846 186.955 388.048 186.675L387.384 188.561ZM388.807 189.383C389.183 189.723 389.462 190.121 389.652 190.587L391.505 189.834C391.201 189.087 390.746 188.439 390.147 187.898L388.807 189.383ZM389.654 190.593C389.843 191.05 389.933 191.567 389.906 192.16L391.904 192.252C391.943 191.396 391.815 190.583 391.502 189.828L389.654 190.593ZM390.905 191.206H387.347V193.206H390.905V191.206ZM394.204 202V203H394.833L395.105 202.433L394.204 202ZM390.425 202L389.532 201.55L388.802 203H390.425V202ZM397.748 187.455V186.455H397.132L396.855 187.005L397.748 187.455ZM402.428 187.455L403.414 187.286L403.271 186.455H402.428V187.455ZM404.921 202V203H406.107L405.907 201.831L404.921 202ZM401.143 202L400.153 202.145L400.279 203H401.143V202ZM399.545 191.119L400.534 190.974L400.409 190.119H399.545V191.119ZM399.431 191.119V190.119H398.802L398.53 190.686L399.431 191.119ZM394.658 196.276V195.276H393.814L393.673 196.108L394.658 196.276ZM402.556 196.276L403.542 196.443L403.741 195.276H402.556V196.276ZM402.102 198.946V199.946H402.946L403.087 199.114L402.102 198.946ZM394.204 198.946L393.218 198.778L393.019 199.946H394.204V198.946ZM394.204 201H390.425V203H394.204V201ZM391.319 202.45L398.641 187.904L396.855 187.005L389.532 201.55L391.319 202.45ZM397.748 188.455H402.428V186.455H397.748V188.455ZM401.443 187.623L403.935 202.169L405.907 201.831L403.414 187.286L401.443 187.623ZM404.921 201H401.143V203H404.921V201ZM402.132 201.855L400.534 190.974L398.555 191.265L400.153 202.145L402.132 201.855ZM399.545 190.119H399.431V192.119H399.545V190.119ZM398.53 190.686L393.302 201.567L395.105 202.433L400.332 191.552L398.53 190.686ZM394.658 197.276H402.556V195.276H394.658V197.276ZM401.57 196.108L401.116 198.778L403.087 199.114L403.542 196.443L401.57 196.108ZM402.102 197.946H394.204V199.946H402.102V197.946ZM395.19 199.114L395.644 196.443L393.673 196.108L393.218 198.778L395.19 199.114ZM421.956 192.206L420.96 192.301L421.047 193.206H421.956V192.206ZM421.757 191.418L420.845 191.827L420.848 191.834L421.757 191.418ZM420.663 190.466L420.357 191.418L420.365 191.42L420.373 191.423L420.663 190.466ZM417.794 190.849L418.29 191.718L417.794 190.849ZM416.281 192.341L417.125 192.877L417.127 192.874L416.281 192.341ZM415.436 194.706L414.449 194.545L414.449 194.546L415.436 194.706ZM415.422 197.092L414.444 197.303L414.446 197.31L415.422 197.092ZM419.768 198.804L420.155 199.726L420.162 199.723L419.768 198.804ZM420.976 197.902L420.197 197.275L420.192 197.281L420.976 197.902ZM421.565 196.531L421.685 195.538L420.723 195.422L420.577 196.38L421.565 196.531ZM422.212 196.609V197.609L422.332 195.617L422.212 196.609ZM418.675 196.609L417.688 196.445L417.495 197.609H418.675V196.609ZM419.101 194.045V193.045H418.253L418.114 193.881L419.101 194.045ZM425.365 194.045L426.352 194.209L426.545 193.045H425.365V194.045ZM425.045 195.97L424.059 195.806L424.059 195.809L425.045 195.97ZM423.668 199.315L422.871 198.71L422.87 198.713L423.668 199.315ZM421.04 201.453L420.612 200.549L420.611 200.55L421.04 201.453ZM414.094 201.297L413.56 202.142L414.094 201.297ZM412.062 198.726L411.122 199.065L411.122 199.066L412.062 198.726ZM411.835 194.749L410.849 194.584L410.848 194.587L411.835 194.749ZM412.893 191.574L412.018 191.091L412.017 191.093L412.893 191.574ZM414.768 189.216L414.114 188.46L414.111 188.462L414.768 189.216ZM417.233 187.753L416.887 186.814V186.814L417.233 187.753ZM425.187 190.21L424.261 190.587L424.264 190.593L425.187 190.21ZM425.514 192.206V193.206H426.469L426.513 192.252L425.514 192.206ZM422.951 192.111C422.914 191.723 422.825 191.348 422.666 191.001L420.848 191.834C420.897 191.942 420.941 192.092 420.96 192.301L422.951 192.111ZM422.669 191.008C422.511 190.655 422.288 190.342 421.998 190.083L420.664 191.573C420.734 191.636 420.795 191.716 420.845 191.827L422.669 191.008ZM421.998 190.083C421.694 189.811 421.338 189.626 420.954 189.509L420.373 191.423C420.519 191.467 420.608 191.523 420.664 191.573L421.998 190.083ZM420.969 189.514C420.584 189.39 420.169 189.338 419.74 189.338V191.338C420.012 191.338 420.213 191.371 420.357 191.418L420.969 189.514ZM419.74 189.338C418.869 189.338 418.049 189.552 417.298 189.981L418.29 191.718C418.733 191.465 419.21 191.338 419.74 191.338V189.338ZM417.298 189.981C416.542 190.413 415.924 191.033 415.435 191.808L417.127 192.874C417.463 192.342 417.853 191.968 418.29 191.718L417.298 189.981ZM415.437 191.805C414.938 192.59 414.618 193.513 414.449 194.545L416.423 194.867C416.557 194.043 416.8 193.389 417.125 192.877L415.437 191.805ZM414.449 194.546C414.285 195.556 414.268 196.485 414.444 197.303L416.399 196.881C416.292 196.384 416.284 195.722 416.423 194.866L414.449 194.546ZM414.446 197.31C414.632 198.146 415.028 198.869 415.685 199.385L416.92 197.811C416.696 197.636 416.505 197.355 416.398 196.875L414.446 197.31ZM415.685 199.385C416.347 199.905 417.168 200.116 418.05 200.116V198.116C417.483 198.116 417.138 197.983 416.92 197.811L415.685 199.385ZM418.05 200.116C418.805 200.116 419.513 199.995 420.155 199.726L419.382 197.882C419.029 198.029 418.592 198.116 418.05 198.116V200.116ZM420.162 199.723C420.798 199.451 421.339 199.053 421.759 198.523L420.192 197.281C419.997 197.527 419.733 197.731 419.375 197.885L420.162 199.723ZM421.755 198.529C422.185 197.994 422.448 197.37 422.554 196.683L420.577 196.38C420.521 196.743 420.391 197.033 420.197 197.275L421.755 198.529ZM421.445 197.524L422.092 197.602L422.332 195.617L421.685 195.538L421.445 197.524ZM422.212 195.609H418.675V197.609H422.212V195.609ZM419.661 196.773L420.087 194.209L418.114 193.881L417.688 196.445L419.661 196.773ZM419.101 195.045H425.365V193.045H419.101V195.045ZM424.379 193.882L424.059 195.806L426.032 196.134L426.352 194.209L424.379 193.882ZM424.059 195.809C423.868 196.971 423.466 197.929 422.871 198.71L424.464 199.921C425.28 198.846 425.796 197.574 426.032 196.132L424.059 195.809ZM422.87 198.713C422.266 199.512 421.517 200.121 420.612 200.549L421.467 202.357C422.664 201.791 423.668 200.975 424.466 199.918L422.87 198.713ZM420.611 200.55C419.709 200.978 418.709 201.199 417.595 201.199V203.199C418.982 203.199 420.278 202.922 421.469 202.356L420.611 200.55ZM417.595 201.199C416.358 201.199 415.387 200.931 414.628 200.451L413.56 202.142C414.704 202.865 416.067 203.199 417.595 203.199V201.199ZM414.628 200.451C413.874 199.975 413.334 199.301 413.003 198.386L411.122 199.066C411.596 200.376 412.41 201.416 413.56 202.142L414.628 200.451ZM413.003 198.387C412.674 197.472 412.59 196.326 412.822 194.91L410.848 194.587C410.578 196.239 410.646 197.745 411.122 199.065L413.003 198.387ZM412.822 194.913C413.005 193.815 413.325 192.866 413.77 192.055L412.017 191.093C411.449 192.128 411.063 193.296 410.849 194.584L412.822 194.913ZM413.769 192.056C414.229 191.223 414.782 190.531 415.426 189.97L414.111 188.462C413.278 189.189 412.581 190.069 412.018 191.091L413.769 192.056ZM415.423 189.972C416.078 189.405 416.795 188.98 417.579 188.691L416.887 186.814C415.871 187.189 414.946 187.739 414.114 188.46L415.423 189.972ZM417.579 188.691C418.366 188.401 419.184 188.256 420.038 188.256V186.256C418.951 186.256 417.899 186.442 416.887 186.814L417.579 188.691ZM420.038 188.256C420.78 188.256 421.428 188.362 421.993 188.561L422.657 186.675C421.849 186.39 420.973 186.256 420.038 186.256V188.256ZM421.993 188.561C422.568 188.764 423.037 189.04 423.416 189.383L424.757 187.898C424.161 187.36 423.455 186.955 422.657 186.675L421.993 188.561ZM423.416 189.383C423.793 189.723 424.072 190.121 424.261 190.587L426.114 189.834C425.811 189.087 425.356 188.439 424.757 187.898L423.416 189.383ZM424.264 190.593C424.453 191.05 424.542 191.567 424.515 192.16L426.513 192.252C426.552 191.396 426.424 190.583 426.111 189.828L424.264 190.593ZM425.514 191.206H421.956V193.206H425.514V191.206ZM428.813 202V203H429.442L429.715 202.433L428.813 202ZM425.035 202L424.142 201.55L423.412 203H425.035V202ZM432.357 187.455V186.455H431.741L431.464 187.005L432.357 187.455ZM437.038 187.455L438.023 187.286L437.881 186.455H437.038V187.455ZM439.531 202V203H440.716L440.516 201.831L439.531 202ZM435.752 202L434.763 202.145L434.888 203H435.752V202ZM434.154 191.119L435.143 190.974L435.018 190.119H434.154V191.119ZM434.04 191.119V190.119H433.411L433.139 190.686L434.04 191.119ZM429.268 196.276V195.276H428.424L428.282 196.108L429.268 196.276ZM437.165 196.276L438.151 196.443L438.35 195.276H437.165V196.276ZM436.711 198.946V199.946H437.555L437.697 199.114L436.711 198.946ZM428.813 198.946L427.827 198.778L427.629 199.946H428.813V198.946ZM428.813 201H425.035V203H428.813V201ZM425.928 202.45L433.25 187.904L431.464 187.005L424.142 201.55L425.928 202.45ZM432.357 188.455H437.038V186.455H432.357V188.455ZM436.052 187.623L438.545 202.169L440.516 201.831L438.023 187.286L436.052 187.623ZM439.531 201H435.752V203H439.531V201ZM436.741 201.855L435.143 190.974L433.165 191.265L434.763 202.145L436.741 201.855ZM434.154 190.119H434.04V192.119H434.154V190.119ZM433.139 190.686L427.912 201.567L429.715 202.433L434.942 191.552L433.139 190.686ZM429.268 197.276H437.165V195.276H429.268V197.276ZM436.18 196.108L435.725 198.778L437.697 199.114L438.151 196.443L436.18 196.108ZM436.711 197.946H428.813V199.946H436.711V197.946ZM429.799 199.114L430.254 196.443L428.282 196.108L427.827 198.778L429.799 199.114ZM441.097 202L440.11 201.836L439.917 203H441.097V202ZM443.511 187.455V186.455H442.664L442.525 187.291L443.511 187.455ZM452.247 188.044L451.773 188.924L451.777 188.927L452.247 188.044ZM453.803 189.72L452.881 190.109L452.882 190.111L453.803 189.72ZM454.016 192.298L453.029 192.134L453.028 192.14L454.016 192.298ZM452.936 194.862L452.152 194.241L452.152 194.242L452.936 194.862ZM450.791 196.467L450.403 195.546L450.401 195.547L450.791 196.467ZM444.023 197.021L443.037 196.854L442.839 198.021H444.023V197.021ZM444.491 194.251V193.251H443.646L443.505 194.085L444.491 194.251ZM449.001 194.045L449.338 194.987L449.349 194.983L449.001 194.045ZM449.918 193.406L449.138 192.78L449.137 192.782L449.918 193.406ZM450.379 192.298L451.365 192.464L451.367 192.454L450.379 192.298ZM450.28 191.183L449.366 191.589L449.37 191.598L449.374 191.607L450.28 191.183ZM449.577 190.516L449.161 191.425L449.169 191.429L449.177 191.432L449.577 190.516ZM446.565 190.288V189.288H445.718L445.579 190.124L446.565 190.288ZM444.612 202V203H445.459L445.599 202.164L444.612 202ZM450.386 195.352L451.321 194.998L451.077 194.352H450.386V195.352ZM452.908 202V203H454.356L453.843 201.645L452.908 202ZM449.072 202L448.134 202.345L448.375 203H449.072V202ZM446.629 195.352V194.352H445.196L445.691 195.697L446.629 195.352ZM442.083 202.164L444.498 187.618L442.525 187.291L440.11 201.836L442.083 202.164ZM443.511 188.455H449.52V186.455H443.511V188.455ZM449.52 188.455C450.494 188.455 451.228 188.631 451.773 188.924L452.722 187.164C451.808 186.671 450.724 186.455 449.52 186.455V188.455ZM451.777 188.927C452.313 189.212 452.667 189.601 452.881 190.109L454.724 189.331C454.323 188.381 453.639 187.652 452.717 187.161L451.777 188.927ZM452.882 190.111C453.097 190.618 453.172 191.275 453.029 192.134L455.002 192.463C455.19 191.333 455.123 190.272 454.723 189.329L452.882 190.111ZM453.028 192.14C452.891 192.997 452.591 193.687 452.152 194.241L453.72 195.483C454.398 194.627 454.818 193.607 455.003 192.457L453.028 192.14ZM452.152 194.242C451.709 194.802 451.134 195.238 450.403 195.546L451.18 197.389C452.201 196.958 453.055 196.324 453.721 195.482L452.152 194.242ZM450.401 195.547C449.672 195.855 448.819 196.021 447.822 196.021V198.021C449.042 198.021 450.168 197.818 451.181 197.388L450.401 195.547ZM447.822 196.021H444.023V198.021H447.822V196.021ZM445.009 197.188L445.477 194.418L443.505 194.085L443.037 196.854L445.009 197.188ZM444.491 195.251H447.638V193.251H444.491V195.251ZM447.638 195.251C448.247 195.251 448.821 195.172 449.338 194.987L448.664 193.104C448.415 193.193 448.08 193.251 447.638 193.251V195.251ZM449.349 194.983C449.881 194.786 450.344 194.474 450.698 194.031L449.137 192.782C449.036 192.907 448.889 193.021 448.654 193.108L449.349 194.983ZM450.697 194.033C451.058 193.583 451.268 193.044 451.365 192.464L449.393 192.132C449.339 192.452 449.241 192.652 449.138 192.78L450.697 194.033ZM451.367 192.454C451.457 191.884 451.435 191.293 451.186 190.76L449.374 191.607C449.399 191.66 449.443 191.813 449.391 192.142L451.367 192.454ZM451.194 190.777C450.947 190.222 450.511 189.833 449.977 189.599L449.177 191.432C449.314 191.492 449.348 191.548 449.366 191.589L451.194 190.777ZM449.992 189.606C449.487 189.375 448.905 189.288 448.298 189.288V191.288C448.733 191.288 449.003 191.353 449.161 191.425L449.992 189.606ZM448.298 189.288H446.565V191.288H448.298V189.288ZM445.579 190.124L443.626 201.836L445.599 202.164L447.552 190.453L445.579 190.124ZM444.612 201H441.097V203H444.612V201ZM449.451 195.707L451.973 202.355L453.843 201.645L451.321 194.998L449.451 195.707ZM452.908 201H449.072V203H452.908V201ZM450.011 201.655L447.568 195.007L445.691 195.697L448.134 202.345L450.011 201.655ZM446.629 196.352H450.386V194.352H446.629V196.352ZM457.641 202V203H458.27L458.543 202.433L457.641 202ZM453.863 202L452.97 201.55L452.24 203H453.863V202ZM461.185 187.455V186.455H460.569L460.292 187.005L461.185 187.455ZM465.866 187.455L466.851 187.286L466.709 186.455H465.866V187.455ZM468.359 202V203H469.545L469.344 201.831L468.359 202ZM464.58 202L463.591 202.145L463.716 203H464.58V202ZM462.982 191.119L463.972 190.974L463.846 190.119H462.982V191.119ZM462.869 191.119V190.119H462.24L461.967 190.686L462.869 191.119ZM458.096 196.276V195.276H457.252L457.11 196.108L458.096 196.276ZM465.994 196.276L466.979 196.443L467.178 195.276H465.994V196.276ZM465.539 198.946V199.946H466.383L466.525 199.114L465.539 198.946ZM457.641 198.946L456.655 198.778L456.457 199.946H457.641V198.946ZM457.641 201H453.863V203H457.641V201ZM454.756 202.45L462.079 187.904L460.292 187.005L452.97 201.55L454.756 202.45ZM461.185 188.455H465.866V186.455H461.185V188.455ZM464.88 187.623L467.373 202.169L469.344 201.831L466.851 187.286L464.88 187.623ZM468.359 201H464.58V203H468.359V201ZM465.57 201.855L463.972 190.974L461.993 191.265L463.591 202.145L465.57 201.855ZM462.982 190.119H462.869V192.119H462.982V190.119ZM461.967 190.686L456.74 201.567L458.543 202.433L463.77 191.552L461.967 190.686ZM458.096 197.276H465.994V195.276H458.096V197.276ZM465.008 196.108L464.553 198.778L466.525 199.114L466.979 196.443L465.008 196.108ZM465.539 197.946H457.641V199.946H465.539V197.946ZM458.627 199.114L459.082 196.443L457.11 196.108L456.655 198.778L458.627 199.114ZM484.719 187.455L485.705 187.618L485.898 186.455H484.719V187.455ZM482.304 202V203H483.152L483.29 202.164L482.304 202ZM479.321 202L478.434 202.463L478.715 203H479.321V202ZM474.939 193.605L475.825 193.142L475.545 192.605H474.939V193.605ZM474.839 193.605V192.605H473.992L473.853 193.441L474.839 193.605ZM473.44 202V203H474.287L474.427 202.164L473.44 202ZM469.925 202L468.938 201.836L468.745 203H469.925V202ZM472.339 187.455V186.455H471.492L471.353 187.291L472.339 187.455ZM475.365 187.455L476.253 186.994L475.973 186.455H475.365V187.455ZM479.712 195.835L478.824 196.296L479.104 196.835H479.712V195.835ZM479.832 195.835V196.835H480.681L480.819 195.997L479.832 195.835ZM481.21 187.455V186.455H480.361L480.223 187.292L481.21 187.455ZM483.732 187.291L481.317 201.836L483.29 202.164L485.705 187.618L483.732 187.291ZM482.304 201H479.321V203H482.304V201ZM480.207 201.537L475.825 193.142L474.052 194.068L478.434 202.463L480.207 201.537ZM474.939 192.605H474.839V194.605H474.939V192.605ZM473.853 193.441L472.454 201.836L474.427 202.164L475.826 193.77L473.853 193.441ZM473.44 201H469.925V203H473.44V201ZM470.911 202.164L473.326 187.618L471.353 187.291L468.938 201.836L470.911 202.164ZM472.339 188.455H475.365V186.455H472.339V188.455ZM474.477 187.915L478.824 196.296L480.599 195.375L476.253 186.994L474.477 187.915ZM479.712 196.835H479.832V194.835H479.712V196.835ZM480.819 195.997L482.197 187.617L480.223 187.292L478.846 195.673L480.819 195.997ZM481.21 188.455H484.719V186.455H481.21V188.455ZM485.97 190.31L484.984 190.143L484.787 191.31H485.97V190.31ZM486.453 187.455V186.455H485.608L485.467 187.288L486.453 187.455ZM498.747 187.455L499.733 187.621L499.931 186.455H498.747V187.455ZM498.265 190.31V191.31H499.11L499.251 190.476L498.265 190.31ZM493.854 190.31V189.31H493.006L492.867 190.147L493.854 190.31ZM491.922 202V203H492.77L492.909 202.163L491.922 202ZM488.456 202L487.47 201.837L487.277 203H488.456V202ZM490.388 190.31L491.375 190.473L491.567 189.31H490.388V190.31ZM486.956 190.476L487.439 187.621L485.467 187.288L484.984 190.143L486.956 190.476ZM486.453 188.455H498.747V186.455H486.453V188.455ZM497.761 187.288L497.279 190.143L499.251 190.476L499.733 187.621L497.761 187.288ZM498.265 189.31H493.854V191.31H498.265V189.31ZM492.867 190.147L490.936 201.837L492.909 202.163L494.841 190.473L492.867 190.147ZM491.922 201H488.456V203H491.922V201ZM489.443 202.163L491.375 190.473L489.401 190.147L487.47 201.837L489.443 202.163ZM490.388 189.31H485.97V191.31H490.388V189.31ZM503.98 187.455L504.967 187.618L505.16 186.455H503.98V187.455ZM501.565 202V203H502.413L502.552 202.164L501.565 202ZM498.05 202L497.063 201.836L496.87 203H498.05V202ZM500.464 187.455V186.455H499.617L499.478 187.291L500.464 187.455ZM502.994 187.291L500.579 201.836L502.552 202.164L504.967 187.618L502.994 187.291ZM501.565 201H498.05V203H501.565V201ZM499.036 202.164L501.451 187.618L499.478 187.291L497.063 201.836L499.036 202.164ZM500.464 188.455H503.98V186.455H500.464V188.455ZM503.772 202L502.786 201.836L502.593 203H503.772V202ZM506.187 187.455V186.455H505.339L505.201 187.291L506.187 187.455ZM515.171 188.357L514.65 189.21L514.655 189.213L515.171 188.357ZM517.267 190.928L516.327 191.27L516.329 191.275L517.267 190.928ZM517.501 194.905L516.515 194.741L516.514 194.741L517.501 194.905ZM516.017 198.726L515.198 198.152L515.196 198.154L516.017 198.726ZM513.176 201.162L513.611 202.062L513.614 202.061L513.176 201.162ZM507.778 199.003L506.792 198.838L506.597 200.003H507.778V199.003ZM511.606 198.562L512.031 199.468L512.034 199.466L511.606 198.562ZM513.169 197.135L514.015 197.668L514.016 197.665L513.169 197.135ZM514.049 194.543L513.063 194.378L513.062 194.381L514.049 194.543ZM514.028 192.121L513.071 192.409L513.073 192.419L514.028 192.121ZM512.977 190.842L512.526 191.735L512.536 191.74L512.977 190.842ZM509.206 190.452V189.452H508.359L508.219 190.287L509.206 190.452ZM509.227 201H503.772V203H509.227V201ZM504.759 202.164L507.174 187.618L505.201 187.291L502.786 201.836L504.759 202.164ZM506.187 188.455H511.478V186.455H506.187V188.455ZM511.478 188.455C512.822 188.455 513.861 188.728 514.65 189.21L515.693 187.503C514.512 186.783 513.089 186.455 511.478 186.455V188.455ZM514.655 189.213C515.443 189.688 515.996 190.36 516.327 191.27L518.206 190.585C517.723 189.26 516.879 188.218 515.688 187.5L514.655 189.213ZM516.329 191.275C516.664 192.181 516.75 193.321 516.515 194.741L518.488 195.069C518.763 193.411 518.693 191.9 518.204 190.58L516.329 191.275ZM516.514 194.741C516.289 196.105 515.842 197.232 515.198 198.152L516.836 199.3C517.678 198.098 518.221 196.679 518.488 195.068L516.514 194.741ZM515.196 198.154C514.554 199.076 513.739 199.775 512.737 200.263L513.614 202.061C514.924 201.422 516.002 200.497 516.837 199.297L515.196 198.154ZM512.74 200.262C511.74 200.745 510.576 201 509.227 201V203C510.832 203 512.301 202.696 513.611 202.062L512.74 200.262ZM507.778 200.003H509.447V198.003H507.778V200.003ZM509.447 200.003C510.382 200.003 511.251 199.834 512.031 199.468L511.181 197.657C510.711 197.878 510.141 198.003 509.447 198.003V200.003ZM512.034 199.466C512.854 199.078 513.513 198.464 514.015 197.668L512.323 196.602C512.001 197.112 511.618 197.45 511.178 197.659L512.034 199.466ZM514.016 197.665C514.521 196.86 514.847 195.857 515.036 194.704L513.062 194.381C512.901 195.368 512.64 196.094 512.321 196.604L514.016 197.665ZM515.036 194.707C515.217 193.621 515.235 192.633 514.983 191.823L513.073 192.419C513.19 192.793 513.223 193.419 513.063 194.378L515.036 194.707ZM514.985 191.832C514.732 190.991 514.208 190.333 513.418 189.945L512.536 191.74C512.788 191.863 512.964 192.057 513.071 192.409L514.985 191.832ZM513.427 189.95C512.724 189.594 511.878 189.452 510.953 189.452V191.452C511.694 191.452 512.198 191.569 512.526 191.735L513.427 189.95ZM510.953 189.452H509.206V191.452H510.953V189.452ZM508.219 190.287L506.792 198.838L508.764 199.168L510.192 190.616L508.219 190.287ZM520.669 202V203H521.298L521.57 202.433L520.669 202ZM516.89 202L515.997 201.55L515.267 203H516.89V202ZM524.213 187.455V186.455H523.597L523.319 187.005L524.213 187.455ZM528.893 187.455L529.879 187.286L529.736 186.455H528.893V187.455ZM531.386 202V203H532.572L532.372 201.831L531.386 202ZM527.608 202L526.618 202.145L526.744 203H527.608V202ZM526.01 191.119L526.999 190.974L526.873 190.119H526.01V191.119ZM525.896 191.119V190.119H525.267L524.995 190.686L525.896 191.119ZM521.123 196.276V195.276H520.279L520.137 196.108L521.123 196.276ZM529.021 196.276L530.007 196.443L530.206 195.276H529.021V196.276ZM528.566 198.946V199.946H529.411L529.552 199.114L528.566 198.946ZM520.669 198.946L519.683 198.778L519.484 199.946H520.669V198.946ZM520.669 201H516.89V203H520.669V201ZM517.783 202.45L525.106 187.904L523.319 187.005L515.997 201.55L517.783 202.45ZM524.213 188.455H528.893V186.455H524.213V188.455ZM527.907 187.623L530.4 202.169L532.372 201.831L529.879 187.286L527.907 187.623ZM531.386 201H527.608V203H531.386V201ZM528.597 201.855L526.999 190.974L525.02 191.265L526.618 202.145L528.597 201.855ZM526.01 190.119H525.896V192.119H526.01V190.119ZM524.995 190.686L519.767 201.567L521.57 202.433L526.797 191.552L524.995 190.686ZM521.123 197.276H529.021V195.276H521.123V197.276ZM528.035 196.108L527.581 198.778L529.552 199.114L530.007 196.443L528.035 196.108ZM528.566 197.946H520.669V199.946H528.566V197.946ZM521.654 199.114L522.109 196.443L520.137 196.108L519.683 198.778L521.654 199.114Z" fill="white" mask="url(#path-6-outside-1_2_72)"/>
<path d="M540.112 105.273H557.441L549.132 155.628C548.327 160.339 546.539 164.446 543.769 167.95C541 171.454 537.496 174.177 533.258 176.118C529.02 178.036 524.321 178.994 519.16 178.994C514.638 178.994 510.649 178.201 507.193 176.615C503.736 175.029 501.18 172.567 499.522 169.229C497.865 165.891 497.475 161.617 498.35 156.409H515.822C515.585 158.303 515.668 159.901 516.071 161.203C516.497 162.505 517.219 163.488 518.237 164.151C519.278 164.813 520.616 165.145 522.25 165.145C523.954 165.145 525.446 164.778 526.724 164.044C528.026 163.31 529.103 162.221 529.956 160.777C530.832 159.333 531.459 157.569 531.838 155.486L540.112 105.273ZM571.637 178.923C568.181 178.923 565.198 178.343 562.688 177.183C560.202 176 558.379 174.212 557.219 171.821C556.083 169.43 555.811 166.447 556.403 162.872C556.923 159.842 557.882 157.297 559.279 155.237C560.7 153.154 562.44 151.461 564.499 150.159C566.583 148.857 568.903 147.863 571.459 147.176C574.016 146.49 576.691 146.028 579.485 145.791C582.61 145.507 585.143 145.199 587.084 144.868C589.049 144.536 590.517 144.075 591.488 143.483C592.459 142.867 593.05 142.015 593.263 140.926V140.749C593.548 138.926 593.157 137.517 592.092 136.523C591.026 135.528 589.428 135.031 587.298 135.031C585.025 135.031 583.084 135.528 581.474 136.523C579.864 137.517 578.739 138.89 578.1 140.642L562.191 140.074C563.185 136.759 564.89 133.8 567.305 131.196C569.719 128.568 572.785 126.509 576.502 125.017C580.243 123.502 584.563 122.744 589.464 122.744C592.92 122.744 596.045 123.159 598.839 123.987C601.632 124.792 603.988 125.976 605.905 127.538C607.847 129.077 609.232 130.971 610.06 133.22C610.889 135.469 611.066 138.038 610.593 140.926L604.379 178H588.043L589.322 170.401H588.896C587.617 172.247 586.114 173.81 584.386 175.088C582.681 176.366 580.763 177.325 578.633 177.964C576.502 178.604 574.17 178.923 571.637 178.923ZM578.952 167.56C580.775 167.56 582.504 167.181 584.137 166.423C585.771 165.666 587.144 164.624 588.256 163.298C589.393 161.949 590.115 160.386 590.423 158.611L591.239 153.426C590.742 153.687 590.115 153.923 589.357 154.136C588.6 154.349 587.795 154.551 586.942 154.74C586.09 154.906 585.214 155.071 584.315 155.237C583.439 155.379 582.598 155.509 581.793 155.628C580.089 155.888 578.609 156.291 577.354 156.835C576.1 157.38 575.093 158.09 574.336 158.966C573.602 159.818 573.152 160.836 572.986 162.02C572.702 163.795 573.117 165.169 574.229 166.139C575.342 167.086 576.916 167.56 578.952 167.56ZM584.954 116.53L594.826 100.514H610.202L596.744 116.53H584.954Z" fill="#FF6B00"/>
<defs>
<linearGradient id="paint0_linear_2_72" x1="37.6263" y1="-49.4625" x2="598.194" y2="72.9929" gradientUnits="userSpaceOnUse">
<stop offset="0.41" stop-color="#2F9B2E"/>
<stop offset="0.495" stop-color="white" stop-opacity="0"/>
<stop offset="0.58" stop-color="white" stop-opacity="0"/>
<stop offset="0.97" stop-color="white" stop-opacity="0"/>
<stop offset="1" stop-color="#FF6B00"/>
</linearGradient>
</defs>
</svg>
