<svg width="455" height="455" viewBox="0 0 455 455" fill="none" xmlns="http://www.w3.org/2000/svg">
<rect width="455" height="455" rx="10" fill="url(#paint0_linear_816_5181)"/>
<path d="M140.035 210.07C121.991 210.07 104.686 202.902 91.927 190.143C79.168 177.384 72 160.079 72 142.035V74H140.035C158.079 74 175.384 81.168 188.143 93.927C200.902 106.686 208.07 123.991 208.07 142.035C208.07 160.079 200.902 177.384 188.143 190.143C175.384 202.902 158.079 210.07 140.035 210.07Z" fill="url(#paint1_linear_816_5181)"/>
<path d="M246.157 142.035C246.157 123.991 253.325 106.686 266.084 93.927C278.843 81.168 296.148 74 314.192 74H382.286V142.035C382.271 160.084 375.089 177.389 362.321 190.146C349.552 202.904 332.242 210.07 314.192 210.07C296.148 210.07 278.843 202.902 266.084 190.143C253.325 177.384 246.157 160.079 246.157 142.035Z" fill="url(#paint2_linear_816_5181)"/>
<path d="M314.311 245.245C332.36 245.245 349.671 252.411 362.44 265.169C375.208 277.926 382.389 295.231 382.405 313.281V381.315H314.311C305.366 381.331 296.507 379.582 288.239 376.17C279.97 372.758 272.456 367.749 266.126 361.43C259.796 355.111 254.774 347.606 251.347 339.344C247.921 331.082 246.157 322.225 246.157 313.281C246.157 304.336 247.921 295.479 251.347 287.217C254.774 278.955 259.796 271.449 266.126 265.13C272.456 258.811 279.97 253.802 288.239 250.39C296.507 246.978 305.366 245.23 314.311 245.245Z" fill="url(#paint3_linear_816_5181)"/>
<path d="M208.07 313.28C208.07 331.324 200.902 348.629 188.143 361.388C175.384 374.147 158.079 381.315 140.035 381.315H72V313.28C72 295.236 79.168 277.931 91.927 265.172C104.686 252.413 121.991 245.245 140.035 245.245C158.079 245.245 175.384 252.413 188.143 265.172C200.902 277.931 208.07 295.236 208.07 313.28Z" fill="url(#paint4_linear_816_5181)"/>
<defs>
<linearGradient id="paint0_linear_816_5181" x1="227.5" y1="0" x2="227.5" y2="455" gradientUnits="userSpaceOnUse">
<stop stop-color="#4ED209"/>
<stop offset="0.526042" stop-color="#13A640"/>
<stop offset="1" stop-color="#066831"/>
</linearGradient>
<linearGradient id="paint1_linear_816_5181" x1="140.035" y1="74" x2="140.035" y2="210.07" gradientUnits="userSpaceOnUse">
<stop stop-color="#4ED209"/>
<stop offset="0.526042" stop-color="#13A640"/>
<stop offset="1" stop-color="#066831"/>
</linearGradient>
<linearGradient id="paint2_linear_816_5181" x1="314.222" y1="74" x2="314.222" y2="210.07" gradientUnits="userSpaceOnUse">
<stop stop-color="#4ED209"/>
<stop offset="0.526042" stop-color="#13A640"/>
<stop offset="1" stop-color="#066831"/>
</linearGradient>
<linearGradient id="paint3_linear_816_5181" x1="314.281" y1="245.245" x2="314.281" y2="381.315" gradientUnits="userSpaceOnUse">
<stop stop-color="#4ED209"/>
<stop offset="0.526042" stop-color="#13A640"/>
<stop offset="1" stop-color="#066831"/>
</linearGradient>
<linearGradient id="paint4_linear_816_5181" x1="140.035" y1="245.245" x2="140.035" y2="381.315" gradientUnits="userSpaceOnUse">
<stop stop-color="#4ED209"/>
<stop offset="0.526042" stop-color="#13A640"/>
<stop offset="1" stop-color="#066831"/>
</linearGradient>
</defs>
</svg>
